<svg
  xmlns="http://www.w3.org/2000/svg"
  xmlns:xlink="http://www.w3.org/1999/xlink"
  viewBox="0 0 1200 800"
>
  <title>Backend</title>
  <style>
    :root { color: black; background-color: currentcolor; max-width: 100% }
    body { margin: 0 }
    path { fill: none; stroke: #47ff47; stroke-width: 5px; stroke-linecap: round; stroke-opacity: 0.05 }
    path:nth-child(odd) { stroke-opacity: 0.075 }
  </style>
  <rect width="100%" height="100%" fill="currentcolor"/>
  <defs>
  <path id="t1" d="M7.76,10.89c-1.5,2.18-2.77,4.5-4.27,6.68-1.12,1.63-2.22,4-.86,5.41a4.34,4.34,0,0,0,2.25,1,130.06,130.06,0,0,0,24.85,3.36,2.65,2.65,0,0,0,2-.45,2.5,2.5,0,0,0,.51-2c-.43-7.43-5.32-13.76-10-19.55C21.15,4,20,2.67,18.4,2.18a5.71,5.71,0,0,0-5,1.19,16.87,16.87,0,0,0-3.43,4c-1.43,2.11-.79,1.36-2.23,3.47">
    <animate
      attributeName="opacity"
      repeatCount="indefinite"
      dur="20s"
      values="1;1;1;0;0;0;0;0;1"
    />
    <animateTransform
      attributeName="transform"
      type="rotate"
      repeatCount="indefinite"
      dur="80s"
      from="360 150 150"
      to="0 150 150"
    />
  </path>
  <path id="c1" d="M12.36,11.18a1.16,1.16,0,0,0-1.63-.11,3,3,0,0,0-.87,1.58c-.61,2.11-.78,4.58.55,6.32,1.71,2.23,5.36,2.21,7.57.46s3.15-4.69,3.26-7.5a13.18,13.18,0,0,0-1.89-7.67A9.12,9.12,0,0,0,12.85,0,9.93,9.93,0,0,0,4.51,3.82,20.08,20.08,0,0,0,.67,12.45c-.86,3.8-1.14,8,.63,11.44,2.31,4.55,7.64,6.85,12.72,7.3a13.12,13.12,0,0,0,7.81-1.32,15.12,15.12,0,0,0,5-5.68c2.11-3.59,3.87-7.56,3.88-11.73S28.64,3.9,24.84,2.21">
    <animate
      attributeName="opacity"
      repeatCount="indefinite"
      dur="20s"
      values="0;1;1;1;0;0;0;0;0"
    />
    <animateTransform
      attributeName="transform"
      type="rotate"
      repeatCount="indefinite"
      dur="80s"
      from="360 150 150"
      to="0 150 150"
    />
  </path>
  <path id="l1" d="M2.07,10.63a6,6,0,0,0,2.89,6A6,6,0,0,0,11.59,16c3.64-3.14,2.84-10.08,7.21-12.06,2.83-1.29,6.15.49,8.31,2.72s3.86,5,6.55,6.59a9.31,9.31,0,0,0,10.47-1A9.31,9.31,0,0,0,46.62,2">
    <animate
      attributeName="opacity"
      repeatCount="indefinite"
      dur="20s"
      values="0;0;1;1;1;0;0;0;0"
    />
    <animateTransform
      attributeName="transform"
      type="rotate"
      repeatCount="indefinite"
      dur="80s"
      from="360 150 150"
      to="0 150 150"
    />
  </path>
  <path id="t2" d="M23.42,19c-1.93-6-2.36-7.18-4.09-13.2-.54-1.88-1.82-4.21-3.71-3.74a3.78,3.78,0,0,0-1.45.88,120.75,120.75,0,0,0-9.68,9.15c-1.38,1.45-2.82,3.27-2.41,5.23a6.22,6.22,0,0,0,2.63,3.34,73,73,0,0,0,15.38,9.16c2,.87,4.64,1.5,6-.18s.26-4-1-5.75S24.06,21,23.42,19Z">
    <animate
      attributeName="opacity"
      repeatCount="indefinite"
      dur="20s"
      values="0;0;0;1;1;1;0;0;0"
    />
    <animateTransform
      attributeName="transform"
      type="rotate"
      repeatCount="indefinite"
      dur="80s"
      from="360 150 150"
      to="0 150 150"
    />
  </path>
  <path id="c2" d="M13.44,10.08a2.92,2.92,0,0,0-4.15-.66C7.93,10.56,8,12.75,8.79,14.32a6.86,6.86,0,0,0,8.38,3,7.23,7.23,0,0,0,4.17-8A11.85,11.85,0,0,0,18.15,4,11.42,11.42,0,0,0,12.33.14a9.79,9.79,0,0,0-7.4,2C1.72,4.41-.71,8.37.19,12.21a13.84,13.84,0,0,0,1.85,4,30.12,30.12,0,0,0,5,6.55A11.53,11.53,0,0,0,14.33,26,12.35,12.35,0,0,0,22,23.15c4.33-3.33,7.31-9,5.86-14.3">
    <animate
      attributeName="opacity"
      repeatCount="indefinite"
      dur="20s"
      values="0;0;0;0;1;1;1;0;0"
    />
    <animateTransform
      attributeName="transform"
      type="rotate"
      repeatCount="indefinite"
      dur="80s"
      from="360 150 150"
      to="0 150 150"
    />
  </path>
  <path id="l2" d="M85.7,8.9c.33-3.32-2.7-6.31-6-6.81s-6.62,1-9.21,3.12S65.89,10,63.64,12.49a9.41,9.41,0,0,1-4.58,3.19c-3.47.78-6.65-2.08-8.76-4.94s-4.2-6.21-7.64-7.11c-3.79-1-7.67,1.51-10.15,4.54s-4.16,6.7-6.93,9.47S18.31,22.12,15,20.06a12.07,12.07,0,0,1-3.69-4.46L7.93,9.85A7.14,7.14,0,0,0,5.39,6.91C4.22,6.3,2.5,6.56,2,7.78">
    <animate
      attributeName="opacity"
      repeatCount="indefinite"
      dur="20s"
      values="0;0;0;0;0;1;1;1;0"
    />
    <animateTransform
      attributeName="transform"
      type="rotate"
      repeatCount="indefinite"
      dur="80s"
      from="360 150 150"
      to="0 150 150"
    />
  </path>
  <path id="t3" d="M16.58,2.36A68.52,68.52,0,0,0,5.33,2.14,4.14,4.14,0,0,0,2.7,3C1.38,4.23,2.18,6.42,3,8l8.1,14.87c.65,1.2,1.43,2.5,2.75,2.87a4.89,4.89,0,0,0,3.37-.69A42.36,42.36,0,0,0,32.45,12.46a8.56,8.56,0,0,0,1.79-3.54,3.37,3.37,0,0,0-1.38-3.5A5,5,0,0,0,31,4.92C25.13,4.1,22.51,2.9,16.58,2.36Z">
    <animate
      attributeName="opacity"
      repeatCount="indefinite"
      dur="20s"
      values="1;0;0;0;0;0;1;1;1"
    />
    <animateTransform
      attributeName="transform"
      type="rotate"
      repeatCount="indefinite"
      dur="80s"
      from="360 150 150"
      to="0 150 150"
    />
  </path>
  <path id="c3" d="M16.66,19.31c0-2.1-2.84-3.38-4.68-2.35s-2.46,3.52-1.85,5.54c1.12,3.7,5.8,5.64,9.41,4.27s5.81-5.44,5.52-9.3a12.82,12.82,0,0,0-6-9.46A12.7,12.7,0,0,0,8,6.38,12.65,12.65,0,0,0,.54,15.12a20.73,20.73,0,0,0,.75,11.75,17.2,17.2,0,0,0,2.43,4.92c3.94,5.26,11.55,6.36,18,5a17.51,17.51,0,0,0,7.55-3.24,15.27,15.27,0,0,0,4.9-8.16A20.76,20.76,0,0,0,18.61,0">
    <animate
      attributeName="opacity"
      repeatCount="indefinite"
      dur="20s"
      values="1;0;0;0;0;0;0;1;1"
    />
    <animateTransform
      attributeName="transform"
      type="rotate"
      repeatCount="indefinite"
      dur="80s"
      from="360 150 150"
      to="0 150 150"
    />
  </path>
  <path id="l3" d="M2,19.86c2.37-3.51,2.92-9.08,7-10,2.51-.58,5,1.1,6.65,3.1s2.78,4.4,4.69,6.14a10.34,10.34,0,0,0,13.12.34c3.4-2.8,4.55-7.42,6.65-11.29S46.72.68,50.74,2.48c5.2,2.33,4.63,11.25,9.95,13.29a8.22,8.22,0,0,0,6.09-.56,18.15,18.15,0,0,0,9.57-9.86">
    <animate
      attributeName="opacity"
      repeatCount="indefinite"
      dur="20s"
      values="1;1;0;0;0;0;0;0;1"
    />
    <animateTransform
      attributeName="transform"
      type="rotate"
      repeatCount="indefinite"
      dur="80s"
      from="360 150 150"
      to="0 150 150"
    />
  </path>
  </defs>
  <use
    xlink:href="#t1"
    transform="translate(1078.12 273.99) rotate(257.35) scale(0.96)"
  />
  <use
    xlink:href="#t1"
    transform="translate(868.4 233.6) rotate(356.87) scale(0.86)"
  />
  <use
    xlink:href="#t1"
    transform="translate(1199.29 495.64) rotate(137.49) scale(0.94)"
  />
  <use
    xlink:href="#t1"
    transform="translate(700.01 355) rotate(313.65) scale(1.16)"
  />
  <use
    xlink:href="#t1"
    transform="translate(849.71 726.17) rotate(289.62) scale(1.11)"
  />
  <use
    xlink:href="#t1"
    transform="translate(558.43 276.38) rotate(167.73) scale(0.81)"
  />
  <use
    xlink:href="#t1"
    transform="translate(430.75 650.35) rotate(105.49) scale(1.19)"
  />
  <use
    xlink:href="#t1"
    transform="translate(105.23 746.54) rotate(26.1) scale(0.81)"
  />
  <use
    xlink:href="#t1"
    transform="translate(833.52 432.52) rotate(177.84) scale(0.85)"
  />
  <use
    xlink:href="#t1"
    transform="translate(958.58 90.05) rotate(334.86) scale(1.09)"
  />
  <use
    xlink:href="#t1"
    transform="translate(807.47 141.28) rotate(79.59) scale(1)"
  />
  <use
    xlink:href="#t1"
    transform="translate(935 766.62) rotate(161.36) scale(0.97)"
  />
  <use
    xlink:href="#t1"
    transform="translate(565.71 133.41) rotate(203.2) scale(0.86)"
  />
  <use
    xlink:href="#t1"
    transform="translate(1167.58 184.81) rotate(24.54) scale(0.83)"
  />
  <use
    xlink:href="#t1"
    transform="translate(1192.95 258.01) rotate(152.87) scale(1.12)"
  />
  <use
    xlink:href="#t1"
    transform="translate(906.01 761.91) rotate(274.21) scale(1.15)"
  />
  <use
    xlink:href="#t1"
    transform="translate(1035.93 322.72) rotate(73.94) scale(0.91)"
  />
  <use
    xlink:href="#t1"
    transform="translate(751.69 446.11) rotate(290.65) scale(1)"
  />
  <use
    xlink:href="#t1"
    transform="translate(632.18 441.21) rotate(317.85) scale(0.95)"
  />
  <use
    xlink:href="#t1"
    transform="translate(601.66 90.76) rotate(187.52) scale(1.07)"
  />
  <use
    xlink:href="#c1"
    transform="translate(782.38 424.64) rotate(154.78) scale(0.89)"
  />
  <use
    xlink:href="#c1"
    transform="translate(343.65 573.32) rotate(105.41) scale(1.17)"
  />
  <use
    xlink:href="#c1"
    transform="translate(71.83 398.03) rotate(21.54) scale(0.92)"
  />
  <use
    xlink:href="#c1"
    transform="translate(753.43 710.06) rotate(329.95) scale(1.02)"
  />
  <use
    xlink:href="#c1"
    transform="translate(291.17 610.53) rotate(56.23) scale(1.14)"
  />
  <use
    xlink:href="#c1"
    transform="translate(368.08 286.56) rotate(200.66) scale(0.99)"
  />
  <use
    xlink:href="#c1"
    transform="translate(281.61 330.48) rotate(168.97) scale(1.11)"
  />
  <use
    xlink:href="#c1"
    transform="translate(188.23 528.71) rotate(121.45) scale(1.04)"
  />
  <use
    xlink:href="#c1"
    transform="translate(1149.07 556.42) rotate(211.79) scale(0.95)"
  />
  <use
    xlink:href="#c1"
    transform="translate(130.98 472.55) rotate(259.37) scale(0.85)"
  />
  <use
    xlink:href="#c1"
    transform="translate(654.03 786.01) rotate(137.16) scale(0.99)"
  />
  <use
    xlink:href="#c1"
    transform="translate(1076.45 680.24) rotate(118.1) scale(0.86)"
  />
  <use
    xlink:href="#c1"
    transform="translate(958.96 502.15) rotate(338.6) scale(0.96)"
  />
  <use
    xlink:href="#c1"
    transform="translate(458.23 88.18) rotate(219.34) scale(0.86)"
  />
  <use
    xlink:href="#c1"
    transform="translate(1033.68 240.71) rotate(195.18) scale(0.8)"
  />
  <use
    xlink:href="#c1"
    transform="translate(290.13 447.27) rotate(55.72) scale(1.14)"
  />
  <use
    xlink:href="#c1"
    transform="translate(1124.12 326.42) rotate(308.12) scale(1.04)"
  />
  <use
    xlink:href="#c1"
    transform="translate(572.85 725.57) rotate(279.05) scale(1.1)"
  />
  <use
    xlink:href="#c1"
    transform="translate(156.55 738.11) rotate(80.2) scale(1.14)"
  />
  <use
    xlink:href="#c1"
    transform="translate(665.12 310.66) rotate(231.74) scale(1.01)"
  />
  <use
    xlink:href="#l1"
    transform="translate(1145.82 754.35) rotate(49.6) scale(1.05)"
  />
  <use
    xlink:href="#l1"
    transform="translate(898.48 643.66) rotate(111.02) scale(0.8)"
  />
  <use
    xlink:href="#l1"
    transform="translate(43.5 279.43) rotate(218.58) scale(0.98)"
  />
  <use
    xlink:href="#l1"
    transform="translate(218.74 176.32) rotate(279.7) scale(1)"
  />
  <use
    xlink:href="#l1"
    transform="translate(229.55 586.23) rotate(240.43) scale(0.88)"
  />
  <use
    xlink:href="#l1"
    transform="translate(468.26 548.74) rotate(79.32) scale(0.92)"
  />
  <use
    xlink:href="#l1"
    transform="translate(500.3 733.92) rotate(342.4) scale(1.04)"
  />
  <use
    xlink:href="#l1"
    transform="translate(506.94 367.21) rotate(150.07) scale(1.05)"
  />
  <use
    xlink:href="#l1"
    transform="translate(383.8 170.68) rotate(232.47) scale(0.99)"
  />
  <use
    xlink:href="#l1"
    transform="translate(1152.41 621.73) rotate(172.42) scale(0.8)"
  />
  <use
    xlink:href="#l1"
    transform="translate(825.23 629.24) rotate(154.17) scale(1.03)"
  />
  <use
    xlink:href="#l1"
    transform="translate(1125.75 152.16) rotate(171.44) scale(1)"
  />
  <use
    xlink:href="#l1"
    transform="translate(829.18 521.78) rotate(3.21) scale(0.89)"
  />
  <use
    xlink:href="#l1"
    transform="translate(26.05 680.9) rotate(276.26) scale(1.12)"
  />
  <use
    xlink:href="#l1"
    transform="translate(775.79 295.16) rotate(135.25) scale(1.17)"
  />
  <use
    xlink:href="#l1"
    transform="translate(1098.74 515.9) rotate(104.35) scale(1.12)"
  />
  <use
    xlink:href="#l1"
    transform="translate(708.49 641.83) rotate(185.67) scale(0.91)"
  />
  <use
    xlink:href="#l1"
    transform="translate(757.07 15.3) rotate(336.15) scale(0.81)"
  />
  <use
    xlink:href="#l1"
    transform="translate(472.35 268.34) rotate(347.89) scale(1.19)"
  />
  <use
    xlink:href="#l1"
    transform="translate(584.52 204.13) rotate(251.69) scale(1)"
  />
  <use
    xlink:href="#t2"
    transform="translate(1062 369.74) rotate(74.25) scale(0.81)"
  />
  <use
    xlink:href="#t2"
    transform="translate(547.45 209.73) rotate(66.23) scale(1.08)"
  />
  <use
    xlink:href="#t2"
    transform="translate(658.3 146.35) rotate(32.55) scale(0.87)"
  />
  <use
    xlink:href="#t2"
    transform="translate(1076.74 366.98) rotate(321.2) scale(1.03)"
  />
  <use
    xlink:href="#t2"
    transform="translate(461.21 535.86) rotate(113.87) scale(1.16)"
  />
  <use
    xlink:href="#t2"
    transform="translate(401.15 325.62) rotate(327.94) scale(0.82)"
  />
  <use
    xlink:href="#t2"
    transform="translate(160.98 139.43) rotate(66.04) scale(1.09)"
  />
  <use
    xlink:href="#t2"
    transform="translate(1171.58 738.41) rotate(21.1) scale(1.12)"
  />
  <use
    xlink:href="#t2"
    transform="translate(678.09 280.38) rotate(267.05) scale(0.83)"
  />
  <use
    xlink:href="#t2"
    transform="translate(246.18 738.93) rotate(258.65) scale(0.86)"
  />
  <use
    xlink:href="#t2"
    transform="translate(698.22 159.04) rotate(103.93) scale(0.81)"
  />
  <use
    xlink:href="#t2"
    transform="translate(1015.02 242.41) rotate(13.98) scale(1.17)"
  />
  <use
    xlink:href="#t2"
    transform="translate(701.83 265.54) rotate(72.16) scale(1.12)"
  />
  <use
    xlink:href="#t2"
    transform="translate(230.7 185.35) rotate(262.93) scale(1.13)"
  />
  <use
    xlink:href="#t2"
    transform="translate(398.27 611.75) rotate(70.6) scale(0.9)"
  />
  <use
    xlink:href="#t2"
    transform="translate(984.77 44.26) rotate(222.96) scale(0.98)"
  />
  <use
    xlink:href="#t2"
    transform="translate(91.18 749.68) rotate(71.04) scale(1.04)"
  />
  <use
    xlink:href="#t2"
    transform="translate(326.62 334.39) rotate(145.49) scale(1.13)"
  />
  <use
    xlink:href="#t2"
    transform="translate(314.49 542.62) rotate(208.36) scale(1.15)"
  />
  <use
    xlink:href="#t2"
    transform="translate(1179 371.33) rotate(107.49) scale(1.06)"
  />
  <use
    xlink:href="#c2"
    transform="translate(6.62 137.92) rotate(15.58) scale(0.85)"
  />
  <use
    xlink:href="#c2"
    transform="translate(1060.07 632.46) rotate(150.43) scale(1.04)"
  />
  <use
    xlink:href="#c2"
    transform="translate(1113.21 476.12) rotate(16.04) scale(1.15)"
  />
  <use
    xlink:href="#c2"
    transform="translate(559.9 486.17) rotate(285.31) scale(0.97)"
  />
  <use
    xlink:href="#c2"
    transform="translate(27.57 580.53) rotate(44.97) scale(1.06)"
  />
  <use
    xlink:href="#c2"
    transform="translate(1191.13 541.12) rotate(33.01) scale(0.85)"
  />
  <use
    xlink:href="#c2"
    transform="translate(556.35 699.68) rotate(357.71) scale(0.84)"
  />
  <use
    xlink:href="#c2"
    transform="translate(60.2 533.24) rotate(272.96) scale(0.83)"
  />
  <use
    xlink:href="#c2"
    transform="translate(176.24 411.33) rotate(25.79) scale(1.07)"
  />
  <use
    xlink:href="#c2"
    transform="translate(753.27 306.36) rotate(308.23) scale(0.84)"
  />
  <use
    xlink:href="#c2"
    transform="translate(474.26 218.25) rotate(271.64) scale(0.93)"
  />
  <use
    xlink:href="#c2"
    transform="translate(548.24 266.42) rotate(348.37) scale(1.05)"
  />
  <use
    xlink:href="#c2"
    transform="translate(208.12 497.2) rotate(139.74) scale(0.86)"
  />
  <use
    xlink:href="#c2"
    transform="translate(965.56 584.45) rotate(345.2) scale(1.06)"
  />
  <use
    xlink:href="#c2"
    transform="translate(860.3 61.87) rotate(153.91) scale(0.9)"
  />
  <use
    xlink:href="#c2"
    transform="translate(141.34 160.15) rotate(167.8) scale(0.99)"
  />
  <use
    xlink:href="#c2"
    transform="translate(772.18 729.41) rotate(269.33) scale(0.92)"
  />
  <use
    xlink:href="#c2"
    transform="translate(492.65 143.64) rotate(42.61) scale(1.05)"
  />
  <use
    xlink:href="#c2"
    transform="translate(923.91 568.93) rotate(320.19) scale(0.82)"
  />
  <use
    xlink:href="#c2"
    transform="translate(946.46 598.35) rotate(71.85) scale(1.11)"
  />
  <use
    xlink:href="#l2"
    transform="translate(581.56 404.16) rotate(98.78) scale(1.08)"
  />
  <use
    xlink:href="#l2"
    transform="translate(173.13 313.71) rotate(193.09) scale(1.14)"
  />
  <use
    xlink:href="#l2"
    transform="translate(356.94 258.31) rotate(291.39) scale(1.17)"
  />
  <use
    xlink:href="#l2"
    transform="translate(833.19 12.61) rotate(239.53) scale(1.01)"
  />
  <use
    xlink:href="#l2"
    transform="translate(183.58 163.66) rotate(222.27) scale(1.09)"
  />
  <use
    xlink:href="#l2"
    transform="translate(874.44 702.9) rotate(330.19) scale(1.11)"
  />
  <use
    xlink:href="#l2"
    transform="translate(710.03 748.33) rotate(3.32) scale(1.08)"
  />
  <use
    xlink:href="#l2"
    transform="translate(789.25 501.43) rotate(171.99) scale(1.04)"
  />
  <use
    xlink:href="#l2"
    transform="translate(754.54 204.67) rotate(82.53) scale(0.95)"
  />
  <use
    xlink:href="#l2"
    transform="translate(898.69 20.49) rotate(258.99) scale(1.06)"
  />
  <use
    xlink:href="#l2"
    transform="translate(165.08 152.05) rotate(132.62) scale(0.99)"
  />
  <use
    xlink:href="#l2"
    transform="translate(93.99 537.13) rotate(248.64) scale(1.03)"
  />
  <use
    xlink:href="#l2"
    transform="translate(625.11 198.57) rotate(29.05) scale(1.16)"
  />
  <use
    xlink:href="#l2"
    transform="translate(1024.04 276.36) rotate(51.26) scale(0.91)"
  />
  <use
    xlink:href="#l2"
    transform="translate(160.24 472.96) rotate(213.35) scale(0.88)"
  />
  <use
    xlink:href="#l2"
    transform="translate(11.79 209.76) rotate(267.93) scale(0.9)"
  />
  <use
    xlink:href="#l2"
    transform="translate(996.51 472.09) rotate(65.67) scale(0.98)"
  />
  <use
    xlink:href="#l2"
    transform="translate(746.11 367.29) rotate(114.84) scale(0.88)"
  />
  <use
    xlink:href="#l2"
    transform="translate(245.08 484.75) rotate(93.41) scale(0.85)"
  />
  <use
    xlink:href="#l2"
    transform="translate(731.37 518.46) rotate(328.25) scale(1.02)"
  />
  <use
    xlink:href="#t3"
    transform="translate(111.27 193.75) rotate(96.36) scale(0.8)"
  />
  <use
    xlink:href="#t3"
    transform="translate(895.14 505.78) rotate(285.51) scale(1.11)"
  />
  <use
    xlink:href="#t3"
    transform="translate(660.5 381.4) rotate(311.87) scale(1)"
  />
  <use
    xlink:href="#t3"
    transform="translate(223.54 793.67) rotate(47.37) scale(0.8)"
  />
  <use
    xlink:href="#t3"
    transform="translate(906.92 281.25) rotate(91.13) scale(1.11)"
  />
  <use
    xlink:href="#t3"
    transform="translate(945.21 238.1) rotate(206.45) scale(0.91)"
  />
  <use
    xlink:href="#t3"
    transform="translate(303.7 38.93) rotate(167.78) scale(0.95)"
  />
  <use
    xlink:href="#t3"
    transform="translate(184.91 240.63) rotate(139.47) scale(1.04)"
  />
  <use
    xlink:href="#t3"
    transform="translate(761.41 777.58) rotate(113.11) scale(0.83)"
  />
  <use
    xlink:href="#t3"
    transform="translate(249.45 331.61) rotate(185.2) scale(1)"
  />
  <use
    xlink:href="#t3"
    transform="translate(524.14 410.35) rotate(73.95) scale(0.85)"
  />
  <use
    xlink:href="#t3"
    transform="translate(1040.17 749.23) rotate(266.7) scale(0.96)"
  />
  <use
    xlink:href="#t3"
    transform="translate(343.82 738.61) rotate(1.6) scale(1.09)"
  />
  <use
    xlink:href="#t3"
    transform="translate(1017.39 85.49) rotate(19.99) scale(1.15)"
  />
  <use
    xlink:href="#t3"
    transform="translate(340.87 124.47) rotate(114.61) scale(0.81)"
  />
  <use
    xlink:href="#t3"
    transform="translate(585 24.88) rotate(193.89) scale(0.86)"
  />
  <use
    xlink:href="#t3"
    transform="translate(1023.88 400.98) rotate(330.52) scale(1.05)"
  />
  <use
    xlink:href="#t3"
    transform="translate(480.13 454.43) rotate(273.93) scale(1.07)"
  />
  <use
    xlink:href="#t3"
    transform="translate(1111.48 204.92) rotate(118.95) scale(1.19)"
  />
  <use
    xlink:href="#t3"
    transform="translate(419.57 117.68) rotate(331.81) scale(1.06)"
  />
  <use
    xlink:href="#c3"
    transform="translate(182.83 739.15) rotate(78.35) scale(0.95)"
  />
  <use
    xlink:href="#c3"
    transform="translate(195.39 147.54) rotate(257.51) scale(0.92)"
  />
  <use
    xlink:href="#c3"
    transform="translate(28.28 219.59) rotate(294.37) scale(1.02)"
  />
  <use
    xlink:href="#c3"
    transform="translate(726.11 789.79) rotate(266.47) scale(0.86)"
  />
  <use
    xlink:href="#c3"
    transform="translate(197.17 360.06) rotate(172.7) scale(1.1)"
  />
  <use
    xlink:href="#c3"
    transform="translate(346.47 692.7) rotate(150.79) scale(1.14)"
  />
  <use
    xlink:href="#c3"
    transform="translate(307.17 324.15) rotate(140.68) scale(0.81)"
  />
  <use
    xlink:href="#c3"
    transform="translate(399.75 281.56) rotate(272.52) scale(0.87)"
  />
  <use
    xlink:href="#c3"
    transform="translate(1127.76 727.86) rotate(40.87) scale(0.81)"
  />
  <use
    xlink:href="#c3"
    transform="translate(524.39 28.22) rotate(197.55) scale(0.88)"
  />
  <use
    xlink:href="#c3"
    transform="translate(890.38 268.71) rotate(69.52) scale(1.19)"
  />
  <use
    xlink:href="#c3"
    transform="translate(168.24 10.05) rotate(170.18) scale(0.88)"
  />
  <use
    xlink:href="#c3"
    transform="translate(236.65 137.16) rotate(185.41) scale(0.88)"
  />
  <use
    xlink:href="#c3"
    transform="translate(20.15 200.79) rotate(251.58) scale(0.8)"
  />
  <use
    xlink:href="#c3"
    transform="translate(985.85 576.15) rotate(216.53) scale(1.06)"
  />
  <use
    xlink:href="#c3"
    transform="translate(39.89 457.58) rotate(109.86) scale(1.17)"
  />
  <use
    xlink:href="#c3"
    transform="translate(211.01 754.45) rotate(216.51) scale(1.06)"
  />
  <use
    xlink:href="#c3"
    transform="translate(1150.07 140.71) rotate(104.65) scale(0.87)"
  />
  <use
    xlink:href="#c3"
    transform="translate(736.19 539.16) rotate(126.51) scale(1.17)"
  />
  <use
    xlink:href="#c3"
    transform="translate(1030.08 608.79) rotate(226.12) scale(1.14)"
  />
  <use
    xlink:href="#l3"
    transform="translate(413.43 593.3) rotate(242.38) scale(1.06)"
  />
  <use
    xlink:href="#l3"
    transform="translate(77.39 174.98) rotate(284.2) scale(0.88)"
  />
  <use
    xlink:href="#l3"
    transform="translate(1103.01 94.29) rotate(302.39) scale(0.91)"
  />
  <use
    xlink:href="#l3"
    transform="translate(596.46 32.41) rotate(145.61) scale(1.04)"
  />
  <use
    xlink:href="#l3"
    transform="translate(651.62 62.67) rotate(113.94) scale(0.94)"
  />
  <use
    xlink:href="#l3"
    transform="translate(391.91 195.62) rotate(321.95) scale(1.14)"
  />
  <use
    xlink:href="#l3"
    transform="translate(889.69 293.7) rotate(240.75) scale(0.97)"
  />
  <use
    xlink:href="#l3"
    transform="translate(564.52 537.36) rotate(7.53) scale(0.82)"
  />
  <use
    xlink:href="#l3"
    transform="translate(998.84 561.79) rotate(99.4) scale(1.03)"
  />
  <use
    xlink:href="#l3"
    transform="translate(1036.2 181.76) rotate(359.32) scale(1.13)"
  />
  <use
    xlink:href="#l3"
    transform="translate(353.92 437.68) rotate(252.44) scale(0.82)"
  />
  <use
    xlink:href="#l3"
    transform="translate(494.41 403.1) rotate(146.55) scale(1.18)"
  />
  <use
    xlink:href="#l3"
    transform="translate(998 656.49) rotate(42.28) scale(1.05)"
  />
  <use
    xlink:href="#l3"
    transform="translate(697.96 233.31) rotate(136.55) scale(1.11)"
  />
  <use
    xlink:href="#l3"
    transform="translate(587.91 310.29) rotate(191.41) scale(1.06)"
  />
  <use
    xlink:href="#l3"
    transform="translate(855.36 358.77) rotate(348.08) scale(1.04)"
  />
  <use
    xlink:href="#l3"
    transform="translate(359.81 78.24) rotate(132.34) scale(0.89)"
  />
  <use
    xlink:href="#l3"
    transform="translate(207.16 441.17) rotate(15.87) scale(1.04)"
  />
  <use
    xlink:href="#l3"
    transform="translate(444.48 358.45) rotate(171.56) scale(0.84)"
  />
  <use
    xlink:href="#l3"
    transform="translate(679.23 47.22) rotate(296.6) scale(1.07)"
  />
  <text
    x="600"
    y="400"
    font-family="courier new, courier, monospace"
    font-weight="bold"
    font-size="120"
    fill="#47ff47"
    text-anchor="middle"
    alignment-baseline="middle"
  >be()×1</text>
</svg>
